<svg xmlns="http://www.w3.org/2000/svg" version="1.1" xmlns:xlink="http://www.w3.org/1999/xlink" xmlns:svgjs="http://svgjs.dev/svgjs" width="1500" height="1500" viewBox="0 0 1500 1500"><rect width="1500" height="1500" fill="#000000"></rect><g transform="matrix(0.6666666666666666,0,0,0.6666666666666666,249.39393939393938,691.018773332262)"><svg viewBox="0 0 396 47" data-background-color="#111111" preserveAspectRatio="xMidYMid meet" height="178" width="1500" xmlns="http://www.w3.org/2000/svg" xmlns:xlink="http://www.w3.org/1999/xlink"><g id="tight-bounds" transform="matrix(1,0,0,1,0.2400000000000091,-0.13945797710377406)"><svg viewBox="0 0 395.52 47.27891595420756" height="47.27891595420756" width="395.52"><g><svg viewBox="0 0 459.88317429644525 54.97263841604931" height="47.27891595420756" width="395.52"><g transform="matrix(1,0,0,1,64.36317429644528,7.597520938831707)"><svg viewBox="0 0 395.52 39.77759653838589" height="39.77759653838589" width="395.52"><g id="textblocktransform"><svg viewBox="0 0 395.52 39.77759653838589" height="39.77759653838589" width="395.52" id="textblock"><g><svg viewBox="0 0 395.52 39.77759653838589" height="39.77759653838589" width="395.52"><g transform="matrix(1,0,0,1,0,0)"><svg width="395.52" viewBox="3.52 -34.06 372.36 37.45" height="39.77759653838589" data-palette-color="#d800ff"><g class="wordmark-text-0" data-fill-palette-color="primary" id="text-0"><path d="M3.88 0L3.88-3.91 10.25-3.91 10.25-26.49 3.52-26.49 3.52-30.4 22.78-30.4Q25.59-30.4 27.84-30.3 30.1-30.2 31.93-29.86L31.93-29.86Q34.08-29.44 35.6-28.67 37.11-27.91 38.05-26.81 38.99-25.71 39.42-24.32 39.84-22.92 39.84-21.26L39.84-21.26Q39.84-19.9 39.37-18.58 38.89-17.26 37.96-16.1 37.04-14.94 35.63-14.01 34.23-13.09 32.37-12.5L32.37-12.5Q30.4-11.91 27.99-11.76 25.59-11.6 22.78-11.6L22.78-11.6 15.8-11.6 15.8-3.91 24.49-3.91 24.49 0 3.88 0ZM17.5-5.37L17.5-9.89 21.41-9.89Q23.56-9.89 25.12-9.91 26.68-9.94 27.92-10.02 29.15-10.11 30.14-10.27 31.13-10.42 32.13-10.67L32.13-10.67Q34.38-11.21 36.13-12.19 37.89-13.18 39.1-14.56 40.31-15.94 40.94-17.69 41.58-19.43 41.58-21.48L41.58-21.48Q41.58-24 40.61-25.82 39.65-27.64 37.6-29.1L37.6-29.1Q38.84-28.56 39.79-27.72 40.75-26.88 41.38-25.85 42.02-24.83 42.33-23.71 42.65-22.58 42.65-21.48L42.65-21.48Q42.65-19.31 41.94-17.41 41.24-15.5 39.88-13.96 38.53-12.43 36.54-11.32 34.55-10.21 31.96-9.64L31.96-9.64Q31.18-9.47 30.2-9.34 29.22-9.2 27.95-9.12 26.68-9.03 25.07-9 23.46-8.96 21.41-8.96L21.41-8.96 18.48-8.96 18.48-5.37 17.5-5.37ZM15.8-15.5L23.83-15.5Q25.9-15.5 27.44-15.6 28.98-15.7 30.15-16.04L30.15-16.04Q32.25-16.63 33.07-17.9 33.89-19.17 33.89-21.07L33.89-21.07Q33.89-22.53 33.35-23.56 32.81-24.58 31.62-25.24 30.42-25.9 28.5-26.2 26.59-26.49 23.83-26.49L23.83-26.49 15.8-26.49 15.8-15.5ZM17.5-16.97L17.5-24.78 23.66-24.78Q27.39-24.78 29.36-24.37 31.32-23.95 31.93-22.92L31.93-22.92Q31.45-23.14 30.77-23.32 30.1-23.49 29.13-23.61 28.15-23.73 26.82-23.79 25.49-23.85 23.66-23.85L23.66-23.85 18.48-23.85 18.48-16.97 17.5-16.97ZM4.83-23.85L4.83-24.78 8.72-24.78 8.72-23.85 4.83-23.85ZM5.44 1.71L26.25 1.71 26.25-2.54 27.22-2.54 27.22 2.64 5.44 2.64 5.44 1.71ZM49.56-5.47L49.56-5.47Q49.07-6.71 48.84-8.18 48.61-9.64 48.61-11.4L48.61-11.4 48.61-19.41 44.46-19.41 44.46-23.56 53.85-23.56 53.85-13.48Q53.85-11.5 54.04-9.95 54.22-8.4 54.56-7.52L54.56-7.52Q55-6.4 55.71-5.62 56.42-4.83 57.31-4.35 58.2-3.86 59.24-3.64 60.28-3.42 61.4-3.42L61.4-3.42Q62.6-3.42 63.88-3.86 65.16-4.3 66.35-5.08 67.55-5.86 68.59-6.93 69.63-8.01 70.33-9.25L70.33-9.25 70.33-19.41 64.96-19.41 64.96-23.56 75.58-23.56 75.58-3.66 79.73-3.66 79.73 0 70.33 0 70.33-3.71Q69.55-2.76 68.44-1.95 67.33-1.15 65.98-0.55 64.62 0.05 63.06 0.39 61.5 0.73 59.81 0.73L59.81 0.73Q56.17 0.73 53.5-0.79 50.83-2.32 49.56-5.47ZM77.29-5.13L77.29-22.31 78.27-22.31 78.27-5.13 77.29-5.13ZM55.61-12.01L55.61-22.31 56.59-22.31 56.59-12.28Q56.59-10.38 56.96-9.11 57.32-7.84 57.93-7.03 58.54-6.23 59.32-5.79 60.1-5.35 60.94-5.1L60.94-5.1Q58.37-5.13 56.99-6.8 55.61-8.47 55.61-12.01L55.61-12.01ZM66.43-16.77L66.43-17.7 69.31-17.7 69.31-16.77 66.43-16.77ZM45.92-16.77L45.92-17.7 47.58-17.7 47.58-16.77 45.92-16.77ZM71.8 1.71L81.49 1.71 81.49-2.29 82.47-2.29 82.47 2.64 71.8 2.64 71.8 1.71ZM49.83-1.64L49.83-1.64Q51.73 0.42 54.12 1.43 56.52 2.44 59.84 2.44L59.84 2.44Q62.79 2.44 65.12 1.67 67.45 0.9 69.36-0.42L69.36-0.42 69.36 0.71Q67.21 2.1 64.89 2.73 62.57 3.37 59.86 3.37L59.86 3.37Q56.17 3.37 53.59 2.09 51 0.81 49.83-1.64ZM87.84 0L87.84-3.66 93.21-3.66 93.21-30.4 87.84-30.4 87.84-34.06 98.46-34.06 98.46-3.66 103.83-3.66 103.83 0 87.84 0ZM100.17-5.13L100.17-32.81 101.14-32.81 101.14-5.13 100.17-5.13ZM89.3-27.76L89.3-28.69 92.18-28.69 92.18-27.76 89.3-27.76ZM89.3 1.71L105.59 1.71 105.59-2.29 106.56-2.29 106.56 2.64 89.3 2.64 89.3 1.71ZM112.13 0L112.13-6.71 117.16-6.71Q117.81-5.71 119.04-4.96 120.26-4.2 121.83-3.71 123.41-3.22 125.29-2.98 127.17-2.73 129.14-2.73L129.14-2.73Q130.78-2.73 131.93-2.98 133.07-3.22 133.78-3.66 134.49-4.1 134.81-4.69 135.12-5.27 135.12-5.98L135.12-5.98Q135.12-7.47 132.74-8.53 130.36-9.59 125.21-10.16L125.21-10.16Q121.79-10.52 119.5-11.17 117.2-11.82 115.8-12.74 114.4-13.67 113.8-14.87 113.2-16.06 113.2-17.5L113.2-17.5Q113.2-18.75 113.98-19.97 114.76-21.19 116.36-22.16 117.96-23.12 120.37-23.71 122.77-24.29 126.02-24.29L126.02-24.29Q127.07-24.29 128.17-24.15 129.26-24 130.31-23.72 131.36-23.44 132.32-23.05 133.27-22.66 134.03-22.17L134.03-22.17 134.03-23.54 139.27-23.54 139.27-16.94 134.03-16.94Q133.76-17.7 132.9-18.38 132.05-19.07 130.88-19.58 129.7-20.09 128.39-20.4 127.07-20.7 125.9-20.7L125.9-20.7Q124.36-20.7 122.99-20.48 121.62-20.26 120.62-19.86 119.62-19.46 119.04-18.9 118.45-18.33 118.45-17.65L118.45-17.65Q118.45-17.02 118.9-16.5 119.35-15.99 120.41-15.55 121.48-15.11 123.25-14.73 125.02-14.36 127.65-14.04L127.65-14.04Q131.17-13.6 133.59-12.92 136-12.23 137.52-11.24 139.03-10.25 139.7-8.94 140.37-7.62 140.37-5.91L140.37-5.91Q140.37-4.66 139.62-3.48 138.86-2.29 137.41-1.35 135.95-0.42 133.84 0.16 131.73 0.73 129 0.73L129 0.73Q127.24 0.73 125.7 0.6 124.16 0.46 122.75 0.15 121.33-0.17 120.01-0.66 118.69-1.15 117.38-1.86L117.38-1.86 117.38 0 112.13 0ZM135.22-14.31L135.22-15.23 141.03-15.23 141.03-22.51 142.01-22.51 142.01-14.31 135.22-14.31ZM120.23-17.65L120.23-17.65Q120.31-17.97 120.82-18.24 121.33-18.51 122.12-18.71 122.92-18.92 123.88-19.04 124.85-19.17 125.82-19.17L125.82-19.17Q126.65-19.17 127.54-19.04 128.43-18.92 129.23-18.7 130.02-18.48 130.67-18.15 131.32-17.82 131.68-17.41L131.68-17.41Q131.12-17.65 130.34-17.81 129.56-17.97 128.74-18.07 127.92-18.16 127.14-18.21 126.36-18.26 125.82-18.26L125.82-18.26Q123.85-18.26 122.39-18.07 120.94-17.87 120.23-17.65ZM113.54-12.82L113.54-12.82Q114.23-11.94 115.18-11.25 116.13-10.57 117.47-10.03 118.82-9.5 120.6-9.12 122.38-8.74 124.7-8.47L124.7-8.47Q126.82-8.23 128.39-7.95 129.95-7.67 131-7.32 132.05-6.98 132.63-6.56 133.22-6.13 133.39-5.59L133.39-5.59Q132.88-5.93 132.22-6.19 131.56-6.45 130.53-6.67 129.51-6.88 128.01-7.1 126.51-7.32 124.28-7.59L124.28-7.59Q119.69-8.13 117.03-9.34 114.37-10.55 113.54-12.82ZM113.32 1.71L119.13 1.71 119.13 0.68Q119.82 1 120.87 1.31 121.92 1.61 123.22 1.87 124.53 2.12 125.99 2.28 127.46 2.44 128.97 2.44L128.97 2.44Q132 2.44 134.44 1.77 136.88 1.1 138.59-0.04 140.3-1.17 141.22-2.67 142.13-4.17 142.13-5.83L142.13-5.83Q142.13-6.49 142.06-7.06 141.98-7.62 141.8-8.13 141.62-8.64 141.31-9.16 141.01-9.67 140.54-10.23L140.54-10.23Q143.11-8.72 143.11-5.83L143.11-5.83Q143.11-3.88 142.11-2.2 141.11-0.51 139.26 0.72 137.42 1.95 134.81 2.66 132.19 3.37 128.95 3.37L128.95 3.37Q127.75 3.37 126.53 3.26 125.31 3.15 124.16 2.95 123.01 2.76 121.99 2.49 120.96 2.22 120.16 1.88L120.16 1.88 120.16 2.69 113.32 2.69 113.32 1.71ZM148.92-11.33L148.92-11.33Q148.92-13.92 149.87-16.26 150.82-18.6 152.72-20.39 154.63-22.17 157.46-23.23 160.29-24.29 164.03-24.29L164.03-24.29Q167.54-24.29 170.3-23.35 173.06-22.41 174.99-20.63 176.92-18.85 177.93-16.27 178.95-13.7 178.95-10.4L178.95-10.4 154.26-10.4Q154.48-8.64 155.4-7.28 156.31-5.91 157.73-4.97 159.15-4.03 160.94-3.54 162.73-3.05 164.69-3.05L164.69-3.05Q166.27-3.05 167.92-3.31 169.57-3.56 171.03-4 172.5-4.44 173.65-4.99 174.79-5.54 175.41-6.13L175.41-6.13 176.33-6.13 178.63-3.64Q176.11-1.49 172.51-0.38 168.91 0.73 164.57 0.73L164.57 0.73Q160.78 0.73 157.86-0.2 154.95-1.12 152.96-2.76 150.97-4.39 149.94-6.59 148.92-8.79 148.92-11.33ZM156.61-8.69L180.61-8.69Q180.65-9.06 180.68-9.48 180.7-9.91 180.7-10.4L180.7-10.4Q180.7-12.48 180.28-14.37 179.85-16.26 179.03-17.88 178.21-19.51 177.02-20.85 175.82-22.19 174.31-23.14L174.31-23.14Q175.92-22.51 177.27-21.4 178.63-20.29 179.6-18.7 180.58-17.11 181.13-15.04 181.68-12.96 181.68-10.4L181.68-10.4Q181.68-10.21 181.67-9.91 181.66-9.62 181.63-9.25 181.61-8.89 181.57-8.51 181.53-8.13 181.48-7.76L181.48-7.76 158.41-7.76Q158.88-6.98 160.12-6.16 161.37-5.35 163.34-4.79L163.34-4.79Q162.12-4.79 161.06-5.08 160-5.37 159.13-5.88 158.27-6.4 157.62-7.12 156.97-7.84 156.61-8.69L156.61-8.69ZM154.41-13.45L173.31-13.45Q172.91-15.14 172.1-16.46 171.28-17.77 170.08-18.66 168.89-19.56 167.35-20.03 165.81-20.51 163.98-20.51L163.98-20.51Q162-20.51 160.38-19.98 158.75-19.46 157.53-18.52 156.31-17.58 155.52-16.28 154.73-14.99 154.41-13.45L154.41-13.45ZM157.75-14.5L156.63-14.5Q157.53-16.5 159.47-17.65 161.42-18.8 163.98-18.8L163.98-18.8Q165.03-18.8 166.02-18.63 167.01-18.46 167.85-18.1 168.69-17.75 169.33-17.24 169.96-16.72 170.33-16.06L170.33-16.06Q168.94-16.99 167.35-17.43 165.76-17.87 163.93-17.87L163.93-17.87Q161.81-17.87 160.2-16.99 158.58-16.11 157.75-14.5L157.75-14.5ZM151.87-1.07L151.87-1.07Q154.24 0.61 157.38 1.54 160.51 2.47 164.57 2.47L164.57 2.47Q168.52 2.47 171.97 1.56 175.43 0.66 178.21-1.2L178.21-1.2 178.87-0.49Q175.72 1.64 172.24 2.51 168.76 3.39 164.96 3.39L164.96 3.39Q160 3.39 156.74 2.2 153.48 1 151.87-1.07ZM202.28 0L191.2-26.49 185.46-26.49 185.46-30.4 204.02-30.4 204.02-26.49 197.2-26.49 205.72-5.32 215.76-26.49 209.83-26.49 209.83-30.4 227.45-30.4 227.45-26.49 221.33-26.49 230.63-5.44 239.05-26.49 232.82-26.49 232.82-30.4 249.38-30.4 249.38-26.49 244.13-26.49 233.29 0 227.6 0 218.13-20.75 207.97 0 202.28 0ZM229.43 1.71L234.39 1.71 245.35-24.78 251.13-24.78 251.13-29.15 252.11-29.15 252.11-23.85 246.06-23.85 235.14 2.64 229.94 2.64 229.43 1.71ZM224.16-24.78L229.21-24.78 229.43-29.15 230.19-29.15 230.19-23.85 225.65-23.85 231.29-10.86 230.7-9.62 224.16-24.78ZM206.04-9.13L199.74-24.78 205.77-24.78 205.77-29.15 206.75-29.15 206.75-23.85 201.21-23.85 206.63-10.38 206.04-9.13ZM234.41-23.85L234.41-24.78 237.15-24.78 236.78-23.85 234.41-23.85ZM211.17-23.85L211.17-24.78 213.46-24.78 213.05-23.85 211.17-23.85ZM187.05-23.85L187.05-24.78 190.39-24.78 190.78-23.85 187.05-23.85ZM204.11 1.71L209.12 1.71 218.32-16.97 218.88-15.8 209.83 2.64 204.63 2.64 204.11 1.71ZM254.77-11.69L254.77-11.69Q254.77-13.96 255.72-16.21 256.67-18.46 258.54-20.25 260.41-22.05 263.17-23.17 265.93-24.29 269.52-24.29L269.52-24.29Q270.66-24.29 271.97-24.12 273.28-23.95 274.58-23.56 275.89-23.17 277.13-22.52 278.38-21.88 279.4-20.95L279.4-20.95 279.4-23.56 289.9-23.56 289.9-19.41 284.53-19.41 284.53-3.66 289.9-3.66 289.9 0 279.4 0 279.4-3.17Q278.45-2.22 277.24-1.49 276.03-0.76 274.68-0.27 273.32 0.22 271.87 0.48 270.42 0.73 268.98 0.73L268.98 0.73Q265.46 0.73 262.8-0.27 260.14-1.27 258.36-2.97 256.58-4.66 255.67-6.92 254.77-9.18 254.77-11.69ZM286.29-5.13L286.29-17.7 291.66-17.7 291.66-21.7 292.64-21.7 292.64-16.77 287.27-16.77 287.27-5.13 286.29-5.13ZM260.07-11.89L260.07-11.89Q260.07-9.86 260.79-8.23 261.51-6.59 262.75-5.44 264-4.3 265.71-3.66 267.42-3.03 269.39-3.03L269.39-3.03Q270.54-3.03 271.73-3.26 272.91-3.49 274.02-3.97 275.13-4.44 276.12-5.16 277.11-5.88 277.83-6.87 278.55-7.86 278.98-9.13 279.4-10.4 279.4-11.96L279.4-11.96Q279.4-13.7 278.6-15.25 277.79-16.8 276.44-17.97 275.08-19.14 273.28-19.82 271.47-20.51 269.47-20.51L269.47-20.51Q267.47-20.51 265.74-19.9 264.02-19.29 262.77-18.16 261.51-17.04 260.79-15.44 260.07-13.84 260.07-11.89ZM261.75-11.77L261.75-11.77Q261.75-13.31 262.33-14.59 262.9-15.87 263.93-16.81 264.95-17.75 266.37-18.27 267.78-18.8 269.47-18.8L269.47-18.8Q270.74-18.8 271.76-18.52 272.79-18.24 273.54-17.83 274.3-17.43 274.79-17 275.28-16.58 275.47-16.26L275.47-16.26Q274.15-16.99 272.76-17.43 271.37-17.87 269.47-17.87L269.47-17.87Q267.93-17.87 266.7-17.37 265.46-16.87 264.58-16.02 263.71-15.16 263.23-14.04 262.75-12.92 262.75-11.67L262.75-11.67Q262.75-10.5 263.02-9.47 263.29-8.45 263.89-7.58 264.49-6.71 265.45-5.99 266.42-5.27 267.78-4.74L267.78-4.74Q266.24-5 265.11-5.65 263.97-6.3 263.23-7.23 262.49-8.15 262.12-9.31 261.75-10.47 261.75-11.77ZM280.87 1.71L291.66 1.71 291.66-2.29 292.64-2.29 292.64 2.64 280.87 2.64 280.87 1.71ZM257.92-1.05L257.92-1.05Q258.92-0.24 260.19 0.4 261.46 1.05 262.9 1.5 264.34 1.95 265.89 2.2 267.44 2.44 269 2.44L269 2.44Q271.71 2.44 274.07 1.77 276.43 1.1 278.26-0.1L278.26-0.1 278.26 1.03Q276.43 2.12 274.02 2.75 271.62 3.37 269.03 3.37L269.03 3.37Q267.25 3.37 265.54 3.09 263.83 2.81 262.36 2.25 260.9 1.68 259.75 0.85 258.6 0.02 257.92-1.05ZM313.92 0L301.94-19.9 296.66-19.9 296.66-23.56 313.41-23.56 313.41-19.9 308.16-19.9 317.46-4 326.42-19.9 320.83-19.9 320.83-23.56 337.09-23.56 337.09-19.9 332.06-19.9 320.27 0 313.92 0ZM315.63 1.71L321.44 1.71 333.23-18.19 338.85-18.19 338.85-22.19 339.83-22.19 339.83-17.26 333.87-17.26 322.08 2.64 316 2.64 315.63 1.71ZM317.83-6.98L311.48-18.19 315.63-18.19 315.17-22.19 316.14-22.19 316.14-17.26 313.19-17.26 318.39-7.91 317.83-6.98ZM322.03-17.26L322.03-18.19 324.23-18.19 323.66-17.26 322.03-17.26ZM298.13-17.26L298.13-18.19 301.67-18.19 302.23-17.26 298.13-17.26ZM343.12-11.33L343.12-11.33Q343.12-13.92 344.07-16.26 345.02-18.6 346.93-20.39 348.83-22.17 351.66-23.23 354.5-24.29 358.23-24.29L358.23-24.29Q361.75-24.29 364.51-23.35 367.27-22.41 369.19-20.63 371.12-18.85 372.14-16.27 373.15-13.7 373.15-10.4L373.15-10.4 348.47-10.4Q348.69-8.64 349.6-7.28 350.52-5.91 351.93-4.97 353.35-4.03 355.14-3.54 356.94-3.05 358.89-3.05L358.89-3.05Q360.48-3.05 362.13-3.31 363.77-3.56 365.24-4 366.7-4.44 367.85-4.99 369-5.54 369.61-6.13L369.61-6.13 370.54-6.13 372.83-3.64Q370.32-1.49 366.72-0.38 363.11 0.73 358.77 0.73L358.77 0.73Q354.98 0.73 352.07-0.2 349.15-1.12 347.16-2.76 345.17-4.39 344.15-6.59 343.12-8.79 343.12-11.33ZM350.81-8.69L374.81-8.69Q374.86-9.06 374.88-9.48 374.91-9.91 374.91-10.4L374.91-10.4Q374.91-12.48 374.48-14.37 374.05-16.26 373.23-17.88 372.42-19.51 371.22-20.85 370.02-22.19 368.51-23.14L368.51-23.14Q370.12-22.51 371.48-21.4 372.83-20.29 373.81-18.7 374.78-17.11 375.33-15.04 375.88-12.96 375.88-10.4L375.88-10.4Q375.88-10.21 375.87-9.91 375.86-9.62 375.83-9.25 375.81-8.89 375.77-8.51 375.74-8.13 375.69-7.76L375.69-7.76 352.62-7.76Q353.08-6.98 354.33-6.16 355.57-5.35 357.55-4.79L357.55-4.79Q356.33-4.79 355.27-5.08 354.2-5.37 353.34-5.88 352.47-6.4 351.82-7.12 351.18-7.84 350.81-8.69L350.81-8.69ZM348.61-13.45L367.51-13.45Q367.12-15.14 366.3-16.46 365.48-17.77 364.29-18.66 363.09-19.56 361.55-20.03 360.01-20.51 358.18-20.51L358.18-20.51Q356.21-20.51 354.58-19.98 352.96-19.46 351.74-18.52 350.52-17.58 349.72-16.28 348.93-14.99 348.61-13.45L348.61-13.45ZM351.96-14.5L350.83-14.5Q351.74-16.5 353.68-17.65 355.62-18.8 358.18-18.8L358.18-18.8Q359.23-18.8 360.22-18.63 361.21-18.46 362.05-18.1 362.9-17.75 363.53-17.24 364.16-16.72 364.53-16.06L364.53-16.06Q363.14-16.99 361.55-17.43 359.97-17.87 358.13-17.87L358.13-17.87Q356.01-17.87 354.4-16.99 352.79-16.11 351.96-14.5L351.96-14.5ZM346.07-1.07L346.07-1.07Q348.44 0.61 351.58 1.54 354.72 2.47 358.77 2.47L358.77 2.47Q362.72 2.47 366.18 1.56 369.63 0.66 372.42-1.2L372.42-1.2 373.08-0.49Q369.93 1.64 366.45 2.51 362.97 3.39 359.16 3.39L359.16 3.39Q354.2 3.39 350.94 2.2 347.69 1 346.07-1.07Z" fill="#ffffff" data-fill-palette-color="primary"></path></g></svg></g></svg></g></svg></g></svg></g><g><svg viewBox="0 0 54.972638416049286 54.97263841604931" height="54.97263841604931" width="54.972638416049286"><g><svg xmlns="http://www.w3.org/2000/svg" xmlns:xlink="http://www.w3.org/1999/xlink" version="1.1" x="0" y="0" viewBox="11.026000000000003 11.026 77.94899999999998 77.94900000000001" enable-background="new 0 0 100 100" xml:space="preserve" height="54.97263841604931" width="54.972638416049286" class="icon-icon-0" data-fill-palette-color="accent" id="icon-0"><path d="M50 11.026c-21.525 0-38.974 17.449-38.974 38.974 0 12.283 5.688 23.232 14.567 30.376l-14.567 8.599H50c21.525 0 38.975-17.449 38.975-38.975C88.975 28.475 71.523 11.026 50 11.026zM49.999 85.507H23.961l8.242-4.786C21.617 74.574 14.493 63.123 14.493 50c0-19.61 15.896-35.506 35.506-35.506 19.61 0 35.507 15.896 35.507 35.506C85.506 69.609 69.609 85.507 49.999 85.507zM41.84 53.232l-0.762 2.175H28.296V51.85h10.258l2.886-8.241 7.499 16.795 7.892-24.296 6.152 16.631h9.97v3.559H60.504l-3.455-9.343-7.586 23.352L41.84 53.232z" fill="#ffffff" data-fill-palette-color="accent"></path></svg></g></svg></g></svg></g><defs></defs></svg><rect width="395.52" height="47.27891595420756" fill="none" stroke="none" visibility="hidden"></rect></g></svg></g></svg>